<?xml version="1.0" encoding="UTF-8"?> <svg xmlns="http://www.w3.org/2000/svg" xmlns:xlink="http://www.w3.org/1999/xlink" width="252px" height="55px" viewBox="0 0 252 55" version="1.1"><!-- Generator: Sketch 63.1 (92452) - https://sketch.com --><title>CYBERPRO-Israel-Logo-OverBlack</title><desc>Created with Sketch.</desc><defs><linearGradient x1="-0.183982684%" y1="50%" x2="99.491342%" y2="50%" id="linearGradient-1"><stop stop-color="#563770" offset="0%"></stop><stop stop-color="#64376C" offset="15%"></stop><stop stop-color="#8A3662" offset="43%"></stop><stop stop-color="#C73552" offset="82%"></stop><stop stop-color="#E6354A" offset="100%"></stop></linearGradient><linearGradient x1="-4.51298701%" y1="50%" x2="103.734199%" y2="50%" id="linearGradient-2"><stop stop-color="#563770" offset="0%"></stop><stop stop-color="#64376C" offset="15%"></stop><stop stop-color="#8A3662" offset="43%"></stop><stop stop-color="#C73552" offset="82%"></stop><stop stop-color="#E6354A" offset="100%"></stop></linearGradient><linearGradient x1="-0.168650794%" y1="50%" x2="100.922619%" y2="50%" id="linearGradient-3"><stop stop-color="#563770" offset="0%"></stop><stop stop-color="#64376C" offset="15%"></stop><stop stop-color="#8A3662" offset="43%"></stop><stop stop-color="#C73552" offset="82%"></stop><stop stop-color="#E6354A" offset="100%"></stop></linearGradient><linearGradient x1="-4.13690476%" y1="50%" x2="104.851984%" y2="50%" id="linearGradient-4"><stop stop-color="#563770" offset="0%"></stop><stop stop-color="#64376C" offset="15%"></stop><stop stop-color="#8A3662" offset="43%"></stop><stop stop-color="#C73552" offset="82%"></stop><stop stop-color="#E6354A" offset="100%"></stop></linearGradient><linearGradient x1="0.279789805%" y1="50%" x2="99.9194755%" y2="50%" id="linearGradient-5"><stop stop-color="#563770" offset="0%"></stop><stop stop-color="#64376C" offset="15%"></stop><stop stop-color="#8A3662" offset="43%"></stop><stop stop-color="#C73552" offset="82%"></stop><stop stop-color="#E6354A" offset="100%"></stop></linearGradient><linearGradient x1="-2.66142471%" y1="50%" x2="102.848675%" y2="50%" id="linearGradient-6"><stop stop-color="#563770" offset="0%"></stop><stop stop-color="#64376C" offset="15%"></stop><stop stop-color="#8A3662" offset="43%"></stop><stop stop-color="#C73552" offset="82%"></stop><stop stop-color="#E6354A" offset="100%"></stop></linearGradient><linearGradient x1="-0.101431981%" y1="50%" x2="99.898568%" y2="50%" id="linearGradient-7"><stop stop-color="#563A78" offset="0%"></stop><stop stop-color="#703C72" offset="19%"></stop><stop stop-color="#B44161" offset="60%"></stop><stop stop-color="#FB4650" offset="100%"></stop></linearGradient></defs><g id="Page-1" stroke="none" stroke-width="1" fill="none" fill-rule="evenodd"><g id="CYBERPRO-Israel-Logo-OverBlack" fill-rule="nonzero"><path d="M28.7,31 C28.9,31 29,31.1 29.1,31.2 L30.1,32.3 C29.4,33.1 28.5,33.8 27.7,34.5 C26.8,35.2 25.8,35.7 24.8,36.1 C23.7,36.6 22.5,36.9 21.3,37.1 C19.9,37.4 18.6,37.5 17.2,37.5 C14.8,37.5 12.5,37.1 10.3,36.2 C8.3,35.4 6.4,34.1 4.9,32.5 C3.4,30.8 2.2,28.8 1.4,26.6 C0.5,24.1 0.1,21.6 0.2,19 C0.2,16.4 0.6,13.9 1.5,11.5 C2.3,9.3 3.5,7.3 5.1,5.6 C6.7,3.9 8.6,2.7 10.7,1.8 C13,0.9 15.4,0.4 17.9,0.5 C19.1,0.5 20.3,0.6 21.5,0.8 C22.5,1 23.6,1.3 24.6,1.6 C25.5,2 26.4,2.4 27.3,3 C28.2,3.6 29,4.2 29.8,4.9 L28.9,6 C28.8,6.2 28.5,6.3 28.3,6.3 C28.1,6.3 27.9,6.2 27.7,6 C27.5,5.8 27.2,5.6 26.8,5.3 C26.4,5 26,4.7 25.5,4.4 C24.9,4.1 24.3,3.8 23.6,3.5 C22.8,3.2 22,3 21.1,2.8 C20,2.6 19,2.5 17.9,2.5 C15.8,2.5 13.8,2.9 11.8,3.6 C10,4.5 8.4,5.7 7,7.1 C5.6,8.6 4.6,10.3 3.9,12.2 C3.1,14.4 2.8,16.6 2.8,18.9 C2.8,21.2 3.1,23.6 3.9,25.8 C4.6,27.7 5.6,29.4 7,30.9 C8.3,32.3 9.9,33.4 11.6,34.1 C13.4,34.9 15.4,35.2 17.4,35.2 C18.6,35.2 19.7,35.1 20.9,34.9 C21.9,34.7 22.8,34.5 23.7,34.1 C24.5,33.8 25.3,33.3 26.1,32.8 C26.9,32.3 27.6,31.7 28.3,31 C28.4,30.9 28.5,30.9 28.5,30.8 C28.5,31 28.6,31 28.7,31 Z" id="Path" fill="#B3B3B3"></path><path d="M48.4,22.1 L48.4,37.1 L45.8,37.1 L45.8,22.1 L32.3,0.8 L34.6,0.8 C34.8,0.8 35,0.8 35.2,1 C35.4,1.1 35.5,1.3 35.6,1.5 L46,18.1 C46.2,18.5 46.4,18.8 46.6,19.2 C46.8,19.6 46.9,19.9 47.1,20.3 C47.2,19.9 47.4,19.6 47.6,19.2 C47.8,18.8 48,18.4 48.2,18.1 L58.5,1.5 C58.6,1.3 58.7,1.2 58.9,1 C59.1,0.9 59.3,0.8 59.5,0.8 L61.8,0.8 L48.4,22.1 Z" id="Path" fill="#B3B3B3"></path><path d="M66.5,37.1 L66.5,0.8 L76.9,0.8 C78.7,0.8 80.5,1 82.3,1.4 C83.7,1.7 84.9,2.4 86.1,3.2 C87,4 87.8,5 88.3,6.2 C88.8,7.4 89,8.7 89,10 C89,10.9 88.8,11.9 88.5,12.8 C88.2,13.7 87.7,14.5 87.1,15.3 C86.4,16.1 85.7,16.7 84.8,17.3 C83.8,17.9 82.8,18.3 81.7,18.6 C84.5,19 86.7,20 88.3,21.4 C89.8,22.9 90.6,24.8 90.6,27.2 C90.6,28.6 90.3,30 89.8,31.3 C89.3,32.5 88.4,33.6 87.4,34.4 C86.3,35.3 85,36 83.6,36.4 C81.9,36.9 80.2,37.1 78.4,37.1 L66.5,37.1 Z M69.1,17.8 L77,17.8 C78.5,17.8 79.9,17.6 81.3,17.2 C82.4,16.8 83.4,16.3 84.2,15.5 C84.9,14.8 85.5,14 85.9,13.1 C86.3,12.2 86.4,11.3 86.4,10.4 C86.4,8 85.6,6.1 84.1,4.9 C82.6,3.6 80.2,3 76.9,3 L69.1,3 L69.1,17.8 L69.1,17.8 Z M69.1,19.7 L69.1,35 L78.2,35 C81.4,35 83.8,34.3 85.4,32.9 C87,31.5 87.8,29.6 87.8,27.1 C87.8,26 87.6,25 87.1,24 C86.7,23.1 86,22.3 85.2,21.7 C84.3,21 83.3,20.5 82.2,20.2 C80.9,19.8 79.5,19.7 78.1,19.7 L69.1,19.7 Z" id="Shape" fill="#B3B3B3"></path><polygon id="Path" fill="#B3B3B3" points="119.8 0.8 119.8 3 100.7 3 100.7 17.7 116.6 17.7 116.6 19.8 100.7 19.8 100.7 34.9 119.8 34.9 119.8 37.1 98.1 37.1 98.1 0.8"></polygon><path d="M130.4,20.7 L130.4,37.1 L127.8,37.1 L127.8,0.8 L137,0.8 C141.2,0.8 144.3,1.6 146.4,3.2 C148.5,4.8 149.5,7.2 149.5,10.3 C149.5,11.6 149.3,12.9 148.8,14.1 C148.3,15.2 147.6,16.3 146.7,17.1 C145.8,18 144.7,18.7 143.5,19.2 C142.1,19.8 140.7,20.1 139.2,20.3 C139.6,20.6 140,20.9 140.3,21.3 L152.8,37 L150.5,37 C150.3,37 150,37 149.8,36.8 C149.6,36.7 149.4,36.5 149.2,36.3 L137.6,21.6 C137.4,21.3 137,21 136.7,20.8 C136.2,20.6 135.7,20.5 135.1,20.6 L130.4,20.7 Z M130.4,18.7 L136.7,18.7 C138.2,18.7 139.6,18.5 141,18.1 C142.2,17.8 143.3,17.2 144.2,16.5 C145.1,15.8 145.7,14.9 146.2,13.9 C146.7,12.8 146.9,11.7 146.9,10.5 C146.9,7.9 146.1,6 144.4,4.8 C142.7,3.6 140.3,2.9 137,2.9 L130.4,2.9 L130.4,18.7 Z" id="Shape" fill="#B3B3B3"></path><path d="M165.2,23.8 L165.2,36.7 L160.6,36.7 L160.6,2.2 L170.8,2.2 C172.7,2.2 174.6,2.4 176.5,3 C178,3.4 179.3,4.2 180.5,5.2 C181.5,6.1 182.4,7.3 182.9,8.6 C183.4,10 183.7,11.5 183.7,13 C183.7,14.5 183.4,16 182.9,17.4 C182.3,18.7 181.5,19.9 180.4,20.8 C179.2,21.8 177.9,22.6 176.4,23 C174.6,23.6 172.8,23.8 170.9,23.8 L165.2,23.8 Z M165.2,20.1 L170.7,20.1 C171.9,20.1 173.1,20 174.2,19.6 C175.1,19.3 176,18.8 176.8,18.1 C177.5,17.5 178,16.7 178.4,15.8 C178.8,14.9 178.9,13.9 178.9,12.9 C178.9,10.7 178.2,9 176.9,7.7 C175.5,6.5 173.5,5.9 170.8,5.9 L165.3,5.9 L165.3,20.1 L165.2,20.1 L165.2,20.1 Z" id="Shape" stroke="url(#linearGradient-2)" stroke-width="2" fill="url(#linearGradient-1)" stroke-linecap="round" stroke-linejoin="round"></path><path d="M193.4,22.3 L193.4,36.7 L188.8,36.7 L188.8,2.2 L198.5,2.2 C200.4,2.2 202.3,2.4 204.1,2.9 C205.5,3.3 206.9,3.9 208,4.8 C209,5.6 209.8,6.6 210.3,7.8 C210.8,9.1 211.1,10.4 211,11.8 C211,13 210.8,14.1 210.4,15.2 C210,16.2 209.5,17.2 208.7,18.1 C207.9,19 207,19.7 206,20.3 C204.9,20.9 203.7,21.4 202.4,21.6 C203,22 203.5,22.5 203.9,23.1 L214,36.8 L209.9,36.8 C209.1,36.8 208.4,36.5 208,35.8 L199.1,23.5 C198.9,23.2 198.6,22.9 198.2,22.7 C197.7,22.5 197.3,22.4 196.8,22.4 L193.4,22.3 Z M193.4,18.9 L198.3,18.9 C199.5,18.9 200.7,18.8 201.9,18.4 C202.9,18.1 203.7,17.6 204.5,17 C205.2,16.4 205.7,15.7 206.1,14.8 C206.5,13.9 206.6,13 206.6,12 C206.6,9.9 205.9,8.4 204.6,7.4 C203.2,6.4 201.2,5.8 198.5,5.9 L193.4,5.9 L193.4,18.9 Z" id="Shape" stroke="url(#linearGradient-4)" stroke-width="2" fill="url(#linearGradient-3)" stroke-linecap="round" stroke-linejoin="round"></path><path d="M250.1,19.5 C250.1,21.9 249.7,24.3 248.9,26.6 C248.1,28.7 247,30.6 245.4,32.2 C243.9,33.8 242,35 240,35.8 C235.5,37.5 230.6,37.5 226.1,35.8 C224.1,35 222.2,33.8 220.7,32.2 C219.2,30.6 218,28.7 217.2,26.6 C216.4,24.3 215.9,21.9 216,19.5 C216,17.1 216.4,14.7 217.2,12.4 C218,10.3 219.1,8.4 220.7,6.8 C222.2,5.2 224,4 226.1,3.2 C230.6,1.5 235.5,1.5 240,3.2 C242,4 243.9,5.3 245.4,6.8 C246.9,8.4 248.1,10.3 248.9,12.4 C249.7,14.6 250.2,17 250.1,19.5 Z M245.3,19.5 C245.3,17.6 245,15.6 244.4,13.8 C243.9,12.2 243.1,10.8 241.9,9.5 C240.8,8.3 239.5,7.4 238.1,6.8 C234.9,5.6 231.3,5.6 228,6.8 C226.5,7.4 225.2,8.3 224.1,9.5 C223,10.7 222.1,12.2 221.6,13.8 C221,15.6 220.7,17.6 220.7,19.5 C220.7,21.4 221,23.4 221.6,25.2 C222.1,26.8 223,28.2 224.1,29.5 C225.2,30.7 226.5,31.6 228,32.2 C231.2,33.4 234.8,33.4 238.1,32.2 C239.6,31.6 240.9,30.7 241.9,29.5 C243,28.3 243.8,26.8 244.4,25.2 C245.1,23.3 245.4,21.4 245.3,19.5 Z" id="Shape" stroke="url(#linearGradient-6)" stroke-width="2" fill="url(#linearGradient-5)" stroke-linecap="round" stroke-linejoin="round"></path><path d="M210.8,54.5 L209,54.5 L209,45 L210.8,45 L210.8,54.5 Z M218,46.7 C218,46.8 217.9,46.8 217.8,46.9 C217.7,46.9 217.7,47 217.6,47 C217.5,47 217.4,47 217.3,46.9 C217.2,46.8 217.1,46.8 216.9,46.7 C216.7,46.6 216.6,46.5 216.4,46.5 C216.2,46.4 215.9,46.4 215.7,46.4 C215.5,46.4 215.3,46.4 215.1,46.5 C214.9,46.6 214.8,46.6 214.6,46.7 C214.5,46.8 214.4,46.9 214.3,47.1 C214.2,47.3 214.2,47.4 214.2,47.6 C214.2,47.8 214.3,48 214.4,48.2 C214.5,48.4 214.7,48.5 214.9,48.6 C215.1,48.7 215.4,48.8 215.6,48.9 L216.4,49.2 C216.7,49.3 216.9,49.4 217.2,49.5 C217.5,49.6 217.7,49.8 217.9,50 C218.1,50.2 218.3,50.4 218.4,50.7 C218.5,51 218.6,51.4 218.6,51.7 C218.6,52.1 218.5,52.5 218.4,52.9 C218.3,53.3 218,53.6 217.8,53.9 C217.5,54.2 217.2,54.4 216.8,54.6 C216.4,54.8 215.9,54.8 215.4,54.8 C215.1,54.8 214.8,54.8 214.5,54.7 C214.2,54.6 213.9,54.6 213.7,54.4 C213.4,54.3 213.2,54.2 212.9,54 C212.7,53.9 212.5,53.7 212.3,53.5 L212.8,52.7 C212.8,52.6 212.9,52.6 213,52.5 C213.1,52.5 213.1,52.4 213.2,52.4 C213.3,52.4 213.5,52.5 213.6,52.5 C213.7,52.6 213.9,52.7 214.1,52.8 C214.3,52.9 214.5,53 214.7,53.1 C215,53.2 215.3,53.2 215.5,53.2 C215.9,53.2 216.3,53.1 216.7,52.8 C217,52.5 217.1,52.2 217.1,51.8 C217.1,51.6 217,51.4 216.9,51.2 C216.8,51 216.6,50.9 216.4,50.8 C216.2,50.7 215.9,50.6 215.7,50.5 C215.4,50.4 215.2,50.3 214.9,50.3 C214.6,50.2 214.4,50.1 214.1,50 C213.8,49.9 213.6,49.7 213.4,49.5 C213.2,49.3 213,49 212.9,48.8 C212.8,48.5 212.7,48.1 212.7,47.7 C212.7,47.4 212.8,47 212.9,46.7 C213,46.4 213.2,46.1 213.5,45.8 C213.8,45.5 214.1,45.3 214.5,45.2 C214.9,45 215.4,45 215.8,45 C216.3,45 216.9,45.1 217.4,45.3 C217.8,45.4 218.3,45.7 218.6,46 L218,46.7 Z M227.6,54.5 L226,54.5 C225.7,54.5 225.5,54.4 225.3,54.1 L223.3,51.1 C223.2,51 223.2,50.9 223.1,50.9 C223,50.8 222.8,50.8 222.7,50.8 L221.9,50.8 L221.9,54.5 L220.1,54.5 L220.1,45 L223,45 C223.6,45 224.1,45.1 224.7,45.2 C225.1,45.3 225.5,45.5 225.8,45.8 C226.1,46 226.3,46.3 226.5,46.7 C226.7,47.3 226.8,48 226.6,48.7 C226.5,49 226.4,49.2 226.2,49.5 C226,49.7 225.8,49.9 225.5,50.1 C225.2,50.3 224.9,50.4 224.6,50.5 C224.7,50.6 224.8,50.6 224.9,50.7 C225,50.8 225.1,50.9 225.2,51 L227.6,54.5 Z M223,49.5 C223.3,49.5 223.6,49.5 223.9,49.4 C224.1,49.3 224.3,49.2 224.5,49.1 C224.7,49 224.8,48.8 224.9,48.6 C225,48.4 225,48.2 225,47.9 C225,47.5 224.8,47.1 224.5,46.8 C224.1,46.5 223.6,46.4 223,46.4 L221.9,46.4 L221.9,49.6 L223,49.5 Z M236.7,54.5 L235.3,54.5 C235.2,54.5 235,54.5 234.9,54.4 C234.8,54.3 234.7,54.2 234.7,54.1 L234,52.2 L230,52.2 L229.3,54.1 C229.3,54.2 229.2,54.3 229.1,54.4 C229,54.5 228.9,54.5 228.7,54.5 L227.3,54.5 L231,45 L232.8,45 L236.7,54.5 Z M233.6,50.9 L232.4,47.7 C232.3,47.5 232.3,47.4 232.2,47.2 C232.1,47 232.1,46.8 232,46.6 C231.9,46.8 231.9,47 231.8,47.2 C231.7,47.4 231.7,47.6 231.6,47.7 L230.5,50.9 L233.6,50.9 Z M239.5,46.4 L239.5,49 L242.8,49 L242.8,50.4 L239.5,50.4 L239.5,53.1 L243.7,53.1 L243.7,54.5 L237.7,54.5 L237.7,45 L243.7,45 L243.7,46.4 L239.5,46.4 Z M250.9,53.1 L250.9,54.6 L245.3,54.6 L245.3,45 L247.1,45 L247.1,53.1 L250.9,53.1 Z" id="Shape" fill="url(#linearGradient-7)"></path><path d="M165.2,23.8 L165.2,36.7 L160.6,36.7 L160.6,2.2 L170.8,2.2 C172.7,2.2 174.6,2.4 176.5,3 C178,3.4 179.3,4.2 180.5,5.2 C181.5,6.1 182.4,7.3 182.9,8.6 C183.4,10 183.7,11.5 183.7,13 C183.7,14.5 183.4,16 182.9,17.4 C182.3,18.7 181.5,19.9 180.4,20.8 C179.2,21.8 177.9,22.6 176.4,23 C174.6,23.6 172.8,23.8 170.9,23.8 L165.2,23.8 Z M165.2,20.1 L170.7,20.1 C171.9,20.1 173.1,19.9 174.2,19.6 C175.1,19.3 176,18.8 176.8,18.1 C177.5,17.5 178,16.7 178.4,15.8 C178.8,14.9 178.9,13.9 179,12.9 C179,10.7 178.3,9 177,7.7 C175.6,6.5 173.6,5.9 170.9,5.9 L165.4,5.9 L165.4,20.1 L165.2,20.1 L165.2,20.1 Z" id="Shape" fill="#838793"></path><path d="M193.4,22.3 L193.4,36.7 L188.8,36.7 L188.8,2.2 L198.5,2.2 C200.4,2.2 202.3,2.4 204.2,2.9 C205.6,3.3 207,3.9 208.1,4.8 C209.1,5.6 209.9,6.6 210.4,7.8 C210.9,9.1 211.2,10.4 211.1,11.8 C211.1,13 210.9,14.1 210.5,15.2 C210.1,16.2 209.6,17.2 208.8,18.1 C208,19 207.1,19.7 206.1,20.3 C205,20.9 203.8,21.4 202.5,21.6 C203.1,22 203.6,22.5 204,23.1 L214.1,36.8 L210,36.8 C209.2,36.8 208.5,36.5 208.1,35.8 L199.2,23.5 C199,23.2 198.7,22.9 198.3,22.7 C197.8,22.5 197.4,22.4 196.9,22.4 L193.4,22.3 Z M193.4,18.9 L198.3,18.9 C199.5,18.9 200.7,18.8 201.9,18.4 C202.9,18.1 203.7,17.6 204.5,17 C205.2,16.4 205.7,15.7 206.1,14.9 C206.5,14 206.6,13.1 206.6,12.1 C206.6,10 205.9,8.5 204.6,7.5 C203.2,6.5 201.2,5.9 198.5,6 L193.4,6 L193.4,18.9 Z" id="Shape" fill="#838793"></path><path d="M250.1,19.5 C250.1,21.9 249.7,24.3 248.9,26.6 C248.1,28.7 247,30.6 245.4,32.2 C243.9,33.8 242,35 240,35.8 C235.5,37.5 230.6,37.5 226.1,35.8 C224.1,35 222.2,33.7 220.7,32.2 C219.2,30.6 218,28.7 217.2,26.6 C216.4,24.3 215.9,21.9 216,19.5 C216,17.1 216.4,14.7 217.2,12.4 C218,10.3 219.1,8.4 220.7,6.8 C222.2,5.2 224,4 226.1,3.2 C230.6,1.5 235.5,1.5 240,3.2 C242,4 243.9,5.3 245.4,6.8 C246.9,8.4 248.1,10.3 248.9,12.4 C249.7,14.6 250.2,17 250.1,19.5 Z M245.3,19.5 C245.3,17.6 245,15.6 244.4,13.8 C243.9,12.2 243,10.8 241.9,9.5 C240.8,8.3 239.5,7.4 238,6.8 C234.8,5.5 231.2,5.5 227.9,6.8 C226.4,7.4 225.1,8.3 224,9.5 C222.9,10.7 222.1,12.2 221.5,13.8 C220.9,15.6 220.6,17.6 220.6,19.5 C220.6,21.4 220.9,23.4 221.5,25.2 C222,26.8 222.9,28.2 224,29.5 C225.1,30.7 226.4,31.6 227.9,32.2 C231.1,33.4 234.7,33.4 238,32.2 C239.5,31.6 240.8,30.7 241.9,29.5 C243,28.3 243.8,26.8 244.4,25.2 C245.1,23.3 245.4,21.4 245.3,19.5 Z" id="Shape" fill="#838793"></path></g></g></svg> 